<svg width="3072" height="936" viewBox="0 0 3072 936" fill="none" xmlns="http://www.w3.org/2000/svg">
<g clip-path="url(#clip0_9_154)">
<path d="M3072 168H1655.8C1642.66 168 1632 157.344 1632 144.2V137.399C1632 97.9666 1663.97 66 1703.4 66H3000.6C3040.03 66 3072 97.9666 3072 137.4V168Z" fill="url(#paint0_linear_9_154)"/>
<path d="M3072 168H2207.8C2194.66 168 2184 157.344 2184 144.2V137.399C2184 97.9666 2215.97 66 2255.4 66H3000.6C3040.03 66 3072 97.9666 3072 137.4V168Z" fill="url(#paint1_linear_9_154)"/>
<path d="M2993.81 312.001C2980.66 312 2970 301.342 2970 288.194V89.7998C2970 76.6555 2980.66 66.0005 2993.8 66.0011L3000.6 66.0014C3040.03 66.0032 3072 97.9714 3072 137.404V288.205C3072 301.349 3061.34 312.004 3048.2 312.004L2993.81 312.001Z" fill="url(#paint2_linear_9_154)"/>
<circle cx="1674" cy="102" r="12" fill="#D9D9D9"/>
<path d="M12 834H1386.2C1399.34 834 1410 844.656 1409.99 857.8L1409.99 864.601C1409.97 904.033 1377.99 936 1338.56 936H83.3601C43.9272 936 11.9729 904.033 11.9882 864.6L12 834Z" fill="url(#paint3_linear_9_154)"/>
<path d="M0 834H948.2C961.344 834 971.996 844.656 971.991 857.8L971.988 864.601C971.973 904.033 939.994 936 900.561 936H71.36C31.9271 936 -0.0271095 904.033 -0.0118453 864.6L0 834Z" fill="url(#paint4_linear_9_154)"/>
<path d="M78.2002 690.008C91.3445 690.004 102 700.656 102 713.8L102 912.2C102 925.344 91.3445 936.004 78.2002 936.008L71.3995 936.01C31.9666 936.024 0 904.068 0 864.635L0 713.835C0 700.69 10.6555 690.031 23.7998 690.027L78.2002 690.008Z" fill="url(#paint5_linear_9_154)"/>
<circle cx="12" cy="12" r="12" transform="matrix(-1 0 0.000387095 -1 1374 906)" fill="#D9D9D9"/>
<path d="M166.759 607.476L258.019 593.12C263.146 629.692 277.33 657.72 300.573 677.202C324.156 696.685 356.969 706.426 399.01 706.426C441.393 706.426 472.838 697.881 493.346 680.791C513.854 663.359 524.108 643.022 524.108 619.78C524.108 598.931 515.05 582.524 496.935 570.562C484.288 562.358 452.843 551.934 402.599 539.287C334.923 522.197 287.926 507.5 261.608 495.195C235.631 482.549 215.807 465.288 202.135 443.413C188.805 421.196 182.14 396.758 182.14 370.098C182.14 345.83 187.609 323.442 198.546 302.935C209.825 282.085 225.035 264.824 244.176 251.152C258.531 240.557 278.014 231.67 302.623 224.492C327.574 216.973 354.235 213.213 382.604 213.213C425.328 213.213 462.755 219.365 494.884 231.67C527.355 243.975 551.281 260.723 566.661 281.914C582.042 302.764 592.638 330.791 598.448 365.996L508.214 378.301C504.113 350.273 492.15 328.398 472.325 312.676C452.843 296.953 425.157 289.092 389.269 289.092C346.886 289.092 316.637 296.099 298.522 310.112C280.406 324.126 271.349 340.532 271.349 359.331C271.349 371.294 275.109 382.061 282.628 391.631C290.148 401.543 301.94 409.746 318.004 416.24C327.233 419.658 354.406 427.52 399.523 439.824C464.806 457.256 510.265 471.611 535.9 482.891C561.876 493.828 582.213 509.893 596.91 531.084C611.608 552.275 618.956 578.594 618.956 610.039C618.956 640.801 609.899 669.854 591.783 697.197C574.01 724.199 548.204 745.22 514.366 760.259C480.529 774.956 442.247 782.305 399.523 782.305C328.771 782.305 274.767 767.607 237.511 738.213C200.597 708.818 177.013 665.239 166.759 607.476ZM728.673 770V225.518H811.73V302.935C851.72 243.12 909.484 213.213 985.021 213.213C1017.83 213.213 1047.91 219.194 1075.26 231.157C1102.94 242.778 1123.62 258.159 1137.29 277.3C1150.96 296.44 1160.53 319.17 1166 345.488C1169.42 362.578 1171.13 392.485 1171.13 435.21V770H1078.84V438.799C1078.84 401.201 1075.26 373.174 1068.08 354.717C1060.9 335.918 1048.08 321.05 1029.63 310.112C1011.51 298.833 990.148 293.193 965.538 293.193C926.232 293.193 892.223 305.669 863.512 330.62C835.143 355.571 820.958 402.91 820.958 472.637V770H728.673ZM1313.66 770V18.3887H1405.94V447.002L1624.35 225.518H1743.81L1535.66 427.52L1764.83 770H1651.01L1471.06 491.606L1405.94 554.155V770H1313.66Z" fill="#039475"/>
<path d="M1838.15 770V225.518H1920.69V301.909C1937.78 275.249 1960.51 253.887 1988.88 237.822C2017.25 221.416 2049.55 213.213 2085.78 213.213C2126.11 213.213 2159.09 221.587 2184.73 238.335C2210.7 255.083 2228.99 278.496 2239.59 308.574C2282.65 245 2338.71 213.213 2407.75 213.213C2461.75 213.213 2503.28 228.252 2532.34 258.33C2561.39 288.066 2575.91 334.038 2575.91 396.245V770H2484.14V427.007C2484.14 390.093 2481.07 363.604 2474.91 347.539C2469.1 331.133 2458.34 317.974 2442.61 308.062C2426.89 298.149 2408.43 293.193 2387.24 293.193C2348.96 293.193 2317.17 306.011 2291.88 331.646C2266.59 356.938 2253.94 397.612 2253.94 453.667V770H2161.66V416.24C2161.66 375.225 2154.14 344.463 2139.1 323.955C2124.06 303.447 2099.45 293.193 2065.27 293.193C2039.29 293.193 2015.2 300.029 1992.98 313.701C1971.1 327.373 1955.21 347.368 1945.3 373.687C1935.39 400.005 1930.43 437.944 1930.43 487.505V770H1838.15ZM2914.29 687.456L2927.62 768.975C2901.65 774.443 2878.4 777.178 2857.9 777.178C2824.4 777.178 2798.42 771.88 2779.97 761.284C2761.51 750.688 2748.52 736.846 2741 719.756C2733.48 702.324 2729.72 665.923 2729.72 610.552V297.295H2662.05V225.518H2729.72V90.6787L2821.5 35.3076V225.518H2914.29V297.295H2821.5V615.679C2821.5 641.997 2823.03 658.916 2826.11 666.436C2829.53 673.955 2834.83 679.937 2842 684.38C2849.52 688.823 2860.12 691.045 2873.79 691.045C2884.04 691.045 2897.55 689.849 2914.29 687.456Z" fill="#B7CFAD"/>
</g>
<defs>
<linearGradient id="paint0_linear_9_154" x1="3072" y1="117" x2="1632" y2="117" gradientUnits="userSpaceOnUse">
<stop offset="0.000189007" stop-color="#B3D890"/>
<stop offset="0.75" stop-color="#5BB682"/>
<stop offset="1" stop-color="#039475"/>
</linearGradient>
<linearGradient id="paint1_linear_9_154" x1="3072" y1="117" x2="2184" y2="117" gradientUnits="userSpaceOnUse">
<stop offset="0.000189007" stop-color="#B3D890"/>
<stop offset="0.75" stop-color="#5BB682"/>
<stop offset="1" stop-color="#039475"/>
</linearGradient>
<linearGradient id="paint2_linear_9_154" x1="3021" y1="312.002" x2="3021.01" y2="66.0024" gradientUnits="userSpaceOnUse">
<stop offset="0.000189007" stop-color="#B3D890"/>
<stop offset="0.956731" stop-color="#87C789"/>
</linearGradient>
<linearGradient id="paint3_linear_9_154" x1="11.9803" y1="885" x2="1409.98" y2="885.541" gradientUnits="userSpaceOnUse">
<stop offset="0.000189007" stop-color="#B3D890"/>
<stop offset="0.75" stop-color="#5BB682"/>
<stop offset="1" stop-color="#039475"/>
</linearGradient>
<linearGradient id="paint4_linear_9_154" x1="-0.0197418" y1="885" x2="971.98" y2="885.376" gradientUnits="userSpaceOnUse">
<stop offset="0.000189007" stop-color="#B3D890"/>
<stop offset="0.75" stop-color="#5BB682"/>
<stop offset="1" stop-color="#039475"/>
</linearGradient>
<linearGradient id="paint5_linear_9_154" x1="51" y1="690.017" x2="51.0838" y2="936.017" gradientUnits="userSpaceOnUse">
<stop offset="0.000189007" stop-color="#B3D890"/>
<stop offset="0.956731" stop-color="#87C789"/>
</linearGradient>
<clipPath id="clip0_9_154">
<rect width="3072" height="936" fill="white"/>
</clipPath>
</defs>
</svg>
